# xmcd
#
# Track frame offsets:
#	150
#	10832
#	22570
#	32751
#	42904
#	55965
#	68706
#	78673
#	89778
#	99941
#
# Disc length: 1504 seconds
#
# Revision: 1
# Processed by: cddbd v1.5.2PL0 Copyright (c) Steve Scherf et al.
# Submitted via: audiograbber 1.83.01
#
DISCID=7205de0a
DTITLE=Jean Shepard - Seven Lonely Days
DYEAR=1969
DGENRE=Country
TTITLE0=Seven Lonely Days
TTITLE1=Today I Started Loving You Again
TTITLE2=Only Mama That'll Walk The Line
TTITLE3=Invisible Tears
TTITLE4=D-I-V-O-R-C-E
TTITLE5=I'm Tied Around Your Finger
TTITLE6=Second Place
TTITLE7=You're Telling Me Sweet Lies Again
TTITLE8=You Know Where You Can Go
TTITLE9=Someone's Heartaches
EXTD=
EXTT0=
EXTT1=
EXTT2=
EXTT3=
EXTT4=
EXTT5=
EXTT6=
EXTT7=
EXTT8=
EXTT9=
PLAYORDER=
